# xmcd CD database file
#
# Track frame offsets:
#	187
#	22307
#	41325
#
# Disc length: 843 seconds
#
# Revision: 1
# Processed by: cddbd v1.5PL3 Copyright (c) Steve Scherf et al.
# Submitted via: CDex 1.40Release
#
DISCID=1f034903
DTITLE=GLAY - グロリアス
DYEAR=1996
DGENRE=Rock
TTITLE0=グロリアス
TTITLE1=Believe in fate
TTITLE2=グロリアス (オリジナル・カラオケ)
EXTD=YEAR: 1996 ID3G: 17
EXTT0=
EXTT1=
EXTT2=
PLAYORDER=
